# xmcd
#
# Track frame offsets:
#	150
#	18927
#	38807
#	55030
#	69480
#	89055
#	106779
#	122402
#	138787
#	157552
#	177272
#	193459
#	207885
#	227462
#	245182
#	260815
#
# Disc length: 3696 seconds
#
# Revision: 1
# Processed by: cddbd v1.5.1PL2 Copyright (c) Steve Scherf et al.
# Submitted via: audiograbber 1.83.01
#
DISCID=d50e6e10
DTITLE=Various Artist - Sc3128
DYEAR=1900
DGENRE=Country
TTITLE0=Twain, Shania - Man I Feel Like A Woman
TTITLE1=Kershaw and Morgan - Maybe Not Tonight
TTITLE2=She Daisy - Little Goodbyes
TTITLE3=Dixie Chicks - Let 'Er Rip
TTITLE4=Prosser, James - Life Goes On
TTITLE5=Sons Of The Desert - What About You
TTITLE6=Keith, Toby - Af A Man Answers
TTITLE7=Mcdonald and Mattea - Among The Missing (Vocals)
TTITLE8=Twain, Shania - Man I Feel Like A Woman (Vocals)
TTITLE9=Kershaw and Morgan - Maybe Not Tonight (Vocals)
TTITLE10=She Daisy - Little Goodbyes (Vocals)
TTITLE11=Dixie Chicks - Let 'Er Rip (Vocals)
TTITLE12=Prosser, James - Life Goes On (Vocals)
TTITLE13=Sons Of The Desert - What About You (Vocals)
TTITLE14=Keith, Toby - Af A Man Answers (Vocals)
TTITLE15=Mcdonald and Mattea - Among The Missing (Vocals)
EXTD=
EXTT0=
EXTT1=
EXTT2=
EXTT3=
EXTT4=
EXTT5=
EXTT6=
EXTT7=
EXTT8=
EXTT9=
EXTT10=
EXTT11=
EXTT12=
EXTT13=
EXTT14=
EXTT15=
PLAYORDER=
